<svg version="1" xmlns="http://www.w3.org/2000/svg" width="320" height="320" viewBox="0 0 240.000000 240.000000"><path d="M73.8 1C70.2 2.1 64.6 6.4 63 9.4c-1 2-1.7 2.3-3.1 1.6-5.3-2.9-17.2.8-24.8 7.6-7.3 6.5-13 17.4-14.6 27.7l-.6 3.7h5c4.9 0 5.1-.1 7-3.9 2.8-5.4 7.5-9.1 11.5-9.1 2.1 0 8 2.3 15.3 6 18.3 9.1 27.3 9.2 35.9.4 3.9-4.1 4.7-4.5 7.5-3.9 5 1.1 9.5-.3 13.3-4.1 10.4-10.4 1.9-26.8-13.1-25-3.4.4-5.3.2-5.3-.4 0-.6-1.6-2.6-3.6-4.5C88.4.6 80.9-1.1 73.8 1zM0 150v90h240V89.9l-14.7 12.3c-8.2 6.8-15 12.5-15.3 12.8-.3.3-7.2 6.2-15.5 13-8.2 6.8-15.2 12.6-15.5 12.9-.3.4-2.8 2.5-5.7 4.9l-5.1 4.2-3.1-3.8-3-3.9 3.3-2.9c1.8-1.6 5.8-4.9 8.9-7.4l5.6-4.5.1-18.8V89.8l-5.7 4.9c-3.2 2.6-6.9 5.8-8.3 6.9-1.4 1.2-14.9 12.5-30.1 25.2l-27.7 23.1-2.4-2.7c-1.3-1.5-2.7-3.2-3.1-3.8-.4-.7 3-4.2 8.3-8.8l9-7.6v-18c0-9.9-.3-18-.8-18-.4 0-1.8 1-3.2 2.3-2.3 2-14.7 12.7-21 18.1-5.9 4.9-16.7 14.3-20 17.3-1.9 1.7-4.8 4.2-6.5 5.4-1.6 1.3-3.2 2.6-3.5 2.9-.3.3-3.4 3-7 6s-6.8 5.9-7.2 6.5c-.4.5-.8-19.4-.8-44.3V60H0v90zm60 45v15H40v-30h20v15zm50 0v15H90v-30h20v15zm50 0v15h-20v-30h20v15zm50 0v15h-20v-30h20v15z"/></svg>